<?xml version="1.0" standalone="no"?>
<!DOCTYPE svg PUBLIC "-//W3C//DTD SVG 20010904//EN"
 "http://www.w3.org/TR/2001/REC-SVG-20010904/DTD/svg10.dtd">
<svg version="1.0" xmlns="http://www.w3.org/2000/svg"
 width="180.000000pt" height="180.000000pt" viewBox="0 0 180.000000 180.000000"
 preserveAspectRatio="xMidYMid meet">

<g transform="translate(0.000000,180.000000) scale(0.100000,-0.100000)"
fill="#000000" stroke="none">
<path d="M841 1666 c3 -3 30 -9 60 -14 49 -8 46 -8 -41 -8 -55 0 -82 3 -65 7
26 6 27 7 5 7 -36 0 -91 -15 -65 -18 16 -1 15 -3 -7 -12 -30 -10 -36 -23 -15
-31 7 -2 8 -8 3 -13 -5 -5 -11 -4 -13 4 -6 17 -49 15 -79 -4 -13 -9 -27 -14
-30 -11 -8 8 51 37 74 37 11 0 25 7 32 15 18 22 0 19 -67 -11 -98 -43 -102
-45 -96 -63 5 -12 3 -13 -7 -5 -9 9 -22 5 -55 -17 -23 -16 -48 -35 -55 -44 -7
-8 -16 -12 -21 -9 -5 3 -6 -3 -2 -12 5 -13 3 -15 -7 -9 -10 6 -12 4 -7 -8 15
-37 19 -52 10 -41 -11 14 -53 13 -53 -1 0 -6 -13 -21 -28 -32 -34 -25 -65 -84
-56 -107 3 -9 1 -16 -5 -16 -6 0 -11 5 -11 12 0 6 -6 3 -14 -7 -10 -14 -11
-26 -5 -43 13 -34 11 -40 -7 -17 -16 19 -16 19 -9 -5 4 -14 12 -26 16 -28 5
-2 9 -13 9 -23 0 -11 4 -17 10 -14 5 3 10 2 10 -4 0 -5 -5 -13 -10 -16 -6 -3
-10 -12 -10 -18 0 -7 4 -6 10 3 5 8 12 11 15 8 10 -10 -4 -28 -21 -28 -9 0
-14 11 -14 36 0 21 -4 33 -10 29 -5 -3 -10 -1 -10 4 0 24 -18 9 -24 -21 -7
-35 0 -50 14 -28 7 11 10 6 10 -17 0 -23 -5 -33 -15 -33 -9 0 -15 -10 -16 -27
l-1 -28 -8 25 c-5 15 -8 -26 -8 -105 1 -79 4 -122 9 -110 6 15 8 10 7 -20 -1
-47 10 -95 23 -95 12 0 11 17 -1 41 -8 15 -7 19 4 19 8 0 17 6 19 13 4 9 8 8
16 -3 6 -8 10 -19 10 -25 0 -5 -3 -4 -6 3 -10 25 -25 12 -20 -18 4 -16 3 -30
-2 -30 -12 0 -22 -30 -15 -42 4 -6 10 -5 16 3 6 10 7 7 3 -8 -7 -24 8 -61 22
-53 4 3 13 -14 18 -37 11 -46 53 -110 54 -82 1 9 -6 22 -14 29 -8 7 -15 16
-15 21 0 5 8 1 19 -10 20 -20 35 -75 18 -64 -6 3 -7 1 -3 -5 4 -7 21 -12 37
-12 24 0 32 -6 40 -29 6 -15 20 -33 32 -39 12 -6 16 -11 9 -11 -6 -1 -21 8
-33 20 -11 11 -23 19 -25 16 -9 -9 78 -78 92 -73 7 3 16 1 19 -4 4 -6 1 -10
-6 -10 -8 0 -7 -5 2 -17 12 -14 15 -8 19 53 l5 69 40 0 c31 0 42 -5 51 -22 6
-13 14 -20 18 -16 4 4 3 -4 -3 -19 -5 -14 -7 -29 -3 -34 4 -4 2 -4 -5 0 -7 4
-9 14 -6 24 6 15 5 15 -10 4 -15 -13 -15 -15 1 -32 34 -36 37 -30 41 78 1 19
6 22 46 22 25 0 45 -3 45 -7 -1 -18 -17 -30 -38 -28 -13 1 -26 -3 -29 -8 -3
-6 9 -8 30 -5 32 3 36 1 35 -17 -2 -22 -31 -28 -58 -11 -13 9 -13 8 -1 -7 9
-11 10 -17 2 -17 -6 0 -11 -5 -11 -11 0 -8 13 -9 38 -5 30 4 39 2 39 -9 0 -11
-14 -15 -51 -16 -93 -3 -99 -4 -103 -16 -3 -7 7 -15 21 -19 14 -3 23 -10 20
-15 -7 -12 3 -11 26 1 13 7 21 7 25 0 3 -5 -2 -10 -11 -10 -34 0 -7 -9 86 -29
59 -13 125 -20 180 -20 67 2 77 3 45 9 -34 6 -29 7 34 9 79 1 172 23 231 53
32 17 30 18 -20 4 -3 0 -7 3 -10 8 -3 6 13 10 35 11 34 1 87 24 105 46 3 3 14
10 24 16 29 16 136 125 136 139 0 7 6 14 13 17 6 2 9 8 5 12 -11 11 -40 -16
-34 -32 3 -7 1 -13 -4 -13 -33 0 -3 52 32 55 15 1 29 16 47 51 14 27 29 51 32
54 3 3 18 41 34 85 23 68 28 99 31 205 3 138 -3 210 -17 189 -13 -21 -22 -3
-9 20 7 14 7 21 0 21 -5 0 -10 12 -11 28 0 24 -1 25 -9 7 -11 -27 -59 -72 -91
-83 -21 -8 -28 -7 -37 8 -7 11 -8 21 -2 25 5 3 11 1 15 -5 3 -5 11 -10 16 -10
6 0 7 4 4 10 -3 6 1 7 10 4 10 -4 26 3 41 17 20 18 23 29 18 52 -4 21 -3 27 5
23 6 -4 8 -12 5 -18 -4 -7 -2 -8 4 -4 19 12 14 26 -13 36 -14 5 -25 16 -25 24
0 7 -7 19 -15 26 -17 14 -20 30 -6 30 5 0 16 -16 25 -35 9 -19 22 -35 27 -35
10 0 -3 26 -49 98 -12 18 -17 20 -24 10 -7 -9 -8 -8 -4 5 5 17 -2 29 -52 86
l-23 26 5 -25 c3 -14 3 -20 0 -14 -3 8 -20 10 -44 7 -27 -4 -40 -2 -40 6 0 8
8 10 19 6 11 -3 22 -1 26 5 4 6 -4 10 -20 10 -22 0 -24 3 -15 19 7 14 6 21 -3
24 -6 2 -9 8 -5 12 3 4 17 -5 29 -19 12 -14 27 -26 32 -26 5 0 -6 16 -24 35
-18 18 -36 32 -40 30 -4 -3 -24 11 -45 30 -21 19 -43 35 -48 34 -7 0 -7 -2 0
-5 7 -3 10 -14 7 -25 -5 -16 -13 -19 -44 -17 -43 2 -54 18 -13 18 23 0 25 2
14 15 -7 9 -19 14 -27 11 -9 -4 -11 -1 -7 6 5 7 -2 9 -22 5 -16 -3 -23 -4 -16
-1 22 10 12 26 -13 21 -14 -2 -23 -2 -20 1 12 12 -20 32 -54 33 -32 1 -33 2
-11 8 25 8 23 8 -169 26 -30 3 -53 3 -50 1z m146 -22 c-3 -3 -12 -4 -19 -1 -8
3 -5 6 6 6 11 1 17 -2 13 -5z m-292 -74 c7 -12 -12 -12 -40 0 -18 8 -17 9 7 9
15 1 30 -3 33 -9z m-55 -35 c0 -16 -27 -32 -37 -21 -7 7 16 36 28 36 5 0 9 -7
9 -15z m-125 -15 c-3 -5 -13 -10 -22 -10 -9 0 -13 -6 -10 -14 4 -10 0 -12 -15
-8 -20 5 -20 5 3 23 26 20 54 26 44 9z m75 -25 c0 -7 -9 -15 -20 -18 -11 -3
-17 -1 -14 4 3 6 -6 7 -23 4 l-28 -7 24 20 c25 20 61 19 61 -3z m718 -4 c11
-7 10 -10 -3 -15 -19 -7 -35 0 -35 15 0 11 20 12 38 0z m-228 -22 c0 -11 -12
-11 -35 -3 -12 5 -14 9 -4 14 14 9 39 2 39 -11z m-244 2 c-8 -12 -196 -13
-196 -1 0 6 43 10 101 10 55 0 98 -4 95 -9z m159 -1 c-3 -5 -13 -10 -21 -10
-8 0 -14 5 -14 10 0 6 9 10 21 10 11 0 17 -4 14 -10z m-130 -40 c3 -6 -4 -10
-18 -10 -14 0 -30 -6 -37 -14 -6 -8 -19 -12 -27 -9 -11 4 -14 2 -9 -5 4 -7 3
-12 -2 -12 -6 0 -13 7 -16 16 -4 12 0 15 17 12 12 -2 31 5 41 14 22 20 42 23
51 8z m70 0 c4 -6 -5 -10 -19 -10 -14 0 -26 -4 -26 -10 0 -5 8 -10 18 -10 9 0
30 -7 46 -15 30 -16 52 -11 26 5 -8 6 -10 10 -5 10 6 0 16 -4 24 -9 12 -8 12
-12 2 -25 -12 -14 -9 -16 28 -16 23 0 54 -8 68 -17 15 -10 33 -18 41 -18 9 0
16 -6 18 -13 1 -7 0 -8 -3 -2 -2 5 -9 10 -14 10 -5 0 -4 -10 2 -22 17 -30 28
-107 17 -110 -5 -2 -10 -13 -11 -25 0 -12 -3 -20 -6 -18 -10 10 -41 -29 -41
-52 0 -24 -14 -31 -25 -13 -3 6 -1 10 6 10 7 0 10 2 7 5 -3 4 -17 3 -32 -1
-21 -5 -26 -12 -26 -35 0 -16 3 -28 8 -28 23 4 42 -3 42 -15 0 -23 20 -30 44
-16 22 11 23 13 7 57 -16 44 -16 45 9 65 14 11 24 24 23 28 -1 4 5 7 15 6 9 0
16 5 14 12 -1 8 2 11 7 8 5 -3 70 35 145 84 74 50 141 90 148 90 7 -1 2 -7
-11 -14 -18 -10 -21 -15 -10 -20 8 -3 4 -4 -9 -2 -15 3 -22 0 -19 -7 5 -15 47
-22 47 -8 0 23 19 10 31 -21 7 -18 15 -37 17 -43 2 -5 -5 1 -15 15 -29 40 -79
39 -128 -3 -22 -18 -73 -57 -112 -86 -40 -29 -73 -55 -73 -57 0 -8 15 2 136
88 62 43 115 78 118 78 3 0 6 -6 6 -14 0 -8 -28 -36 -62 -62 -35 -26 -70 -55
-80 -64 -9 -10 -32 -27 -52 -39 -20 -13 -36 -27 -36 -32 0 -5 30 14 68 42 37
28 88 65 114 82 26 18 49 38 50 46 2 9 8 7 22 -8 18 -20 18 -21 0 -28 -21 -7
-224 -171 -224 -180 0 -3 6 -1 13 4 144 113 231 174 243 169 21 -8 17 -22 -11
-40 -14 -9 -23 -22 -19 -28 4 -6 3 -8 -3 -5 -13 8 -85 -52 -77 -65 3 -5 -10
-15 -28 -23 -18 -8 -51 -31 -73 -51 -22 -19 -31 -31 -20 -26 12 6 33 23 48 38
15 14 27 22 27 16 0 -6 -4 -13 -10 -17 -5 -3 -8 -11 -6 -18 1 -7 1 -9 -1 -4
-3 4 -17 -1 -31 -12 -30 -21 -125 -22 -146 -1 -8 8 -6 9 9 4 18 -7 19 -6 6 10
-8 9 -17 13 -20 8 -3 -5 -15 -14 -26 -20 -11 -6 -14 -12 -7 -12 19 0 14 -18
-10 -31 -18 -10 -20 -9 -15 6 5 13 0 11 -22 -7 -17 -13 -28 -29 -26 -36 3 -7
-1 -12 -8 -10 -21 5 -77 -41 -70 -59 5 -12 1 -14 -14 -9 -12 4 -25 1 -32 -7
-9 -11 0 -21 44 -50 51 -33 77 -41 38 -11 -13 10 -14 13 -4 14 11 0 11 3 1 15
-11 13 -10 14 4 9 10 -4 15 -13 12 -20 -3 -8 -1 -14 4 -14 6 0 10 -5 10 -11 0
-18 28 -39 44 -33 8 3 12 12 9 20 -3 8 0 14 7 14 7 0 10 -8 7 -19 -4 -18 0
-19 39 -15 24 2 44 0 44 -5 0 -4 -17 -7 -37 -5 l-38 3 24 -20 c32 -26 10 -24
-23 2 -15 12 -29 19 -32 16 -9 -8 87 -68 98 -61 6 4 8 2 4 -4 -4 -6 20 -25 59
-47 36 -20 65 -40 65 -45 0 -5 3 -17 6 -27 5 -12 4 -15 -4 -8 -5 6 -12 19 -15
30 -3 13 -5 9 -6 -12 0 -17 4 -33 11 -35 8 -3 5 -14 -10 -35 -17 -24 -27 -30
-45 -26 -18 5 -20 3 -9 -8 25 -27 15 -31 -44 -14 -25 8 -40 -8 -21 -22 6 -6
26 -13 42 -17 22 -5 26 -4 15 4 -9 6 -10 10 -3 10 15 0 43 -28 42 -43 0 -9 -2
-8 -6 1 -2 6 -9 12 -15 12 -6 0 -8 -6 -5 -14 8 -21 -26 -47 -64 -49 -19 -1
-41 -7 -49 -12 -12 -7 -13 -6 -4 6 6 8 9 26 8 42 -2 15 2 27 9 27 8 0 8 3 -1
12 -31 31 -1 68 55 68 15 0 35 5 43 10 15 10 13 11 -29 14 -11 0 -23 5 -28 10
-5 5 -2 6 7 1 8 -4 -1 6 -20 23 -19 17 -42 29 -50 26 -8 -3 -12 -2 -8 1 3 4
-6 18 -21 33 -36 36 -67 60 -57 45 4 -8 1 -13 -9 -13 -9 0 -14 4 -10 9 6 10
-26 43 -109 112 -37 31 -51 37 -57 27 -5 -7 -9 -10 -9 -6 0 4 -10 -3 -23 -15
-12 -12 -38 -34 -57 -49 -19 -15 -27 -25 -18 -22 11 4 20 0 24 -10 3 -9 12
-16 20 -16 8 0 14 -6 14 -14 0 -17 -22 -34 -27 -20 -7 20 -19 32 -40 38 -17 5
-36 -6 -92 -54 -38 -33 -78 -60 -88 -60 -35 0 -63 29 -63 64 0 29 7 38 69 80
45 31 68 53 64 62 -3 8 0 14 7 14 6 0 8 -4 5 -10 -11 -18 3 -11 78 38 l73 48
-34 27 c-25 19 -39 24 -47 17 -18 -15 -67 -9 -60 8 3 8 5 19 5 25 0 7 7 3 15
-7 8 -11 18 -16 22 -12 12 11 -30 45 -61 49 -17 2 -32 10 -34 18 -3 12 -2 12
6 0 6 -8 12 -9 16 -3 3 5 -4 18 -15 28 -16 15 -22 16 -28 5 -6 -8 -36 -15 -79
-19 -61 -4 -75 -2 -109 19 -54 32 -76 58 -102 118 -24 57 -30 123 -12 144 6 8
9 16 6 18 -2 3 34 6 81 8 76 2 92 -1 139 -24 30 -14 63 -28 75 -30 17 -3 19
-1 10 15 -17 32 -11 81 15 126 20 34 34 46 66 54 23 6 47 9 54 6 21 -8 25 4 8
24 -12 14 -25 17 -49 13 -19 -3 -34 -2 -34 3 0 5 20 10 44 12 40 2 45 0 56
-28 11 -27 30 -41 30 -22 0 12 56 42 79 42 12 0 21 6 21 14 0 22 43 35 55 16z
m144 -13 c6 -8 7 -17 3 -22 -4 -4 2 -6 13 -3 15 4 21 0 22 -14 2 -24 -20 -33
-44 -19 -15 9 -13 10 10 5 16 -4 27 -2 27 4 0 11 -64 28 -87 24 -23 -5 -24 18
-1 27 32 14 44 13 57 -2z m-599 -7 c0 -5 -7 -10 -15 -10 -8 0 -15 5 -15 10 0
6 7 10 15 10 8 0 15 -4 15 -10z m120 -35 c-7 -8 -20 -15 -29 -15 -13 1 -13 3
3 15 26 19 42 19 26 0z m120 3 c0 -5 -11 -8 -25 -8 -33 0 -77 -20 -97 -44 -17
-21 -17 -21 -11 2 6 25 36 46 48 34 5 -4 6 0 3 8 -4 12 4 15 38 15 24 0 44 -3
44 -7z m666 -34 c35 -17 45 -34 19 -34 -8 0 -23 -9 -33 -20 -16 -17 -23 -19
-43 -10 -23 10 -23 10 4 5 35 -7 36 11 0 20 -15 3 -22 9 -17 13 6 4 13 15 17
25 8 21 10 21 53 1z m-1094 -39 c-2 -14 -9 -25 -14 -25 -5 0 -7 3 -5 8 2 4 7
15 10 25 9 25 15 21 9 -8z m208 -5 c0 -16 -4 -30 -9 -30 -12 0 -24 37 -16 50
12 20 25 10 25 -20z m730 10 c0 -11 -7 -20 -15 -20 -22 0 -19 -42 5 -63 11 -9
20 -21 20 -26 0 -5 -9 -11 -20 -14 -13 -3 -20 0 -20 9 0 9 6 11 17 7 15 -6 16
-5 3 9 -20 21 -42 11 -35 -16 5 -19 5 -19 -5 -3 -9 14 -9 26 0 48 7 16 9 36 6
45 -7 19 10 44 30 44 8 0 14 -9 14 -20z m-666 -10 c8 0 11 -10 8 -30 -7 -52
-33 -29 -31 28 0 15 3 21 6 15 2 -7 10 -13 17 -13z m718 -33 c-3 -20 9 -22 26
-5 7 7 12 8 12 2 0 -25 -23 -33 -51 -18 -29 15 -35 25 -22 38 13 12 38 1 35
-17z m-923 -5 c5 2 9 0 10 -4 1 -5 -2 -8 -6 -8 -5 -1 -19 -8 -31 -16 -13 -9
-26 -13 -30 -10 -3 3 0 6 7 6 9 0 11 8 7 26 -6 23 -5 24 13 14 11 -5 24 -9 30
-8z m104 3 c-3 -9 -8 -14 -10 -11 -3 3 -2 9 2 15 9 16 15 13 8 -4z m717 -1 c0
-8 -4 -12 -10 -9 -5 3 -10 10 -10 16 0 5 5 9 10 9 6 0 10 -7 10 -16z m-740 -2
c0 -5 -7 -9 -15 -9 -8 0 -15 4 -15 9 0 4 7 8 15 8 8 0 15 -4 15 -8z m-12 -35
c26 -4 27 -4 2 -5 -34 -2 -55 12 -44 29 7 11 9 11 12 -3 2 -9 15 -19 30 -21z
m-188 13 c0 -5 -5 -10 -11 -10 -5 0 -7 5 -4 10 3 6 8 10 11 10 2 0 4 -4 4 -10z
m1270 -14 c14 -18 14 -19 -8 -7 -12 7 -20 17 -16 22 3 6 7 9 8 7 1 -2 8 -12
16 -22z m-982 3 c-9 -6 -10 -9 -1 -9 7 0 10 -7 7 -15 -4 -8 -11 -15 -16 -15
-6 0 -7 7 -4 16 5 12 0 15 -22 11 -15 -2 -21 -2 -14 0 7 3 10 8 8 11 -2 4 9 7
26 8 20 1 25 -2 16 -7z m-277 -52 c-10 -9 -11 -8 -5 6 3 10 9 15 12 12 3 -3 0
-11 -7 -18z m1309 8 c0 -8 -2 -15 -4 -15 -2 0 -6 7 -10 15 -3 8 -1 15 4 15 6
0 10 -7 10 -15z m-3 -60 c-23 -22 -33 -18 -12 5 10 11 20 18 23 16 2 -3 -3
-12 -11 -21z m53 -70 c0 -18 -7 -28 -25 -35 -14 -5 -25 -14 -25 -20 0 -15 -42
-9 -47 6 -2 6 10 14 27 17 18 4 30 13 30 22 0 8 7 15 15 15 8 0 15 5 15 10 0
6 2 10 5 10 3 0 5 -11 5 -25z m-490 -51 c-16 -18 -31 -18 -25 1 17 53 15 52
26 32 8 -13 7 -22 -1 -33z m-845 -4 c-8 -14 -32 -13 -41 2 -5 7 -3 8 6 3 10
-6 12 -4 7 9 -4 10 -3 15 3 11 6 -3 10 0 10 7 0 8 5 6 11 -5 5 -9 7 -22 4 -27z
m1179 15 c-7 -18 -20 -19 -30 -3 -4 6 -3 8 4 4 6 -3 13 -2 17 4 9 15 15 12 9
-5z m162 -71 c0 -34 -3 -49 -7 -38 -10 25 -11 94 -1 94 4 0 7 -25 8 -56z
m-199 10 c2 -5 -7 -21 -19 -34 -13 -14 -22 -26 -21 -28 1 -1 9 -10 18 -18 20
-21 19 -34 -3 -34 -11 0 -24 11 -30 25 -6 14 -8 24 -4 24 19 -3 23 2 12 16 -9
11 -9 15 -1 15 7 0 9 5 6 10 -4 6 -1 18 6 26 13 15 30 15 36 -2z m-1057 -40
c0 -7 -8 -10 -19 -7 -12 3 -18 13 -17 28 1 22 2 22 19 8 9 -9 17 -22 17 -29z
m1277 14 c-3 -8 -6 -5 -6 6 -1 11 2 17 5 13 3 -3 4 -12 1 -19z m-447 -23 c0
-20 -27 -8 -33 16 -4 16 -2 17 14 8 10 -5 19 -16 19 -24z m130 -15 c0 -15 -19
-22 -41 -15 -19 6 -19 8 -3 20 18 13 44 10 44 -5z m-750 -4 c-7 -7 -14 -6 -21
1 -9 9 -7 12 9 10 14 -1 18 -5 12 -11z m642 -4 c-7 -2 -12 -8 -12 -14 0 -6 7
-8 15 -4 18 6 45 -2 45 -15 0 -15 -57 -10 -64 6 -8 21 4 46 17 38 8 -5 7 -8
-1 -11z m-663 -9 c17 -10 31 -21 31 -26 0 -4 -8 -2 -17 4 -14 8 -29 7 -62 -4
-38 -14 -46 -14 -58 -1 -8 8 -22 14 -30 14 -9 0 -14 3 -11 6 4 3 21 1 40 -3
18 -5 44 -6 58 -2 24 7 24 7 -5 9 -26 1 -27 3 -10 10 28 12 30 12 64 -7z m569
-4 c3 -11 2 -12 -6 0 -7 9 -12 10 -16 2 -4 -6 -12 -11 -18 -11 -6 0 -6 6 2 15
15 18 32 15 38 -6z m499 -21 c-3 -7 -5 -2 -5 12 0 14 2 19 5 13 2 -7 2 -19 0
-25z m-1222 3 c16 -7 11 -9 -22 -12 -30 -3 -43 -1 -43 8 0 14 34 16 65 4z
m210 -1 c3 -5 1 -10 -4 -10 -6 0 -11 5 -11 10 0 6 2 10 4 10 3 0 8 -4 11 -10z
m490 -13 c-3 -7 -6 -28 -8 -47 -3 -44 -17 -45 -31 -3 -6 17 -15 35 -20 40 -5
5 -6 0 -2 -12 6 -16 5 -17 -5 -8 -18 17 2 38 40 40 20 1 29 -2 26 -10z m546
-19 c-3 -21 -6 -26 -9 -15 -3 17 3 47 11 47 2 0 1 -15 -2 -32z m-24 -40 c-2
-13 -4 -5 -4 17 -1 22 1 32 4 23 2 -10 2 -28 0 -40z m-863 7 c11 -8 17 -17 14
-20 -3 -3 -16 3 -29 14 -27 23 -14 28 15 6z m235 -30 c28 -30 22 -32 -19 -7
-16 10 -27 22 -23 25 10 11 17 8 42 -18z m-265 -5 c5 5 15 10 20 10 6 0 1 -7
-12 -15 -17 -13 -26 -13 -43 -5 -11 6 -26 9 -33 7 -7 -3 -13 1 -13 8 0 11 7
11 35 -1 24 -10 39 -11 46 -4z m913 -2 c-3 -8 -6 -5 -6 6 -1 11 2 17 5 13 3
-3 4 -12 1 -19z m-20 -30 c-3 -8 -6 -5 -6 6 -1 11 2 17 5 13 3 -3 4 -12 1 -19z
m-927 3 c0 -5 -7 -11 -15 -15 -9 -3 -15 0 -15 9 0 8 7 15 15 15 8 0 15 -4 15
-9z m-120 -46 c7 -8 9 -15 5 -15 -5 0 -6 -3 -3 -6 4 -3 16 -1 27 6 12 6 21 8
21 6 0 -3 -9 -10 -19 -15 -20 -11 -81 11 -81 30 0 15 36 10 50 -6z m296 -1
c-9 -8 -16 -20 -16 -25 0 -5 -8 -9 -18 -9 -10 0 -27 -7 -38 -16 -18 -14 -18
-15 6 -9 21 5 22 4 7 -5 -26 -17 -42 -2 -21 21 9 10 22 19 28 19 7 0 19 9 29
20 9 11 22 20 28 20 6 0 3 -7 -5 -16z m-586 -16 c0 -19 -2 -20 -10 -8 -13 19
-13 30 0 30 6 0 10 -10 10 -22z m1240 10 c-1 -7 -9 -29 -20 -48 l-19 -35 -1
41 c0 22 3 44 7 47 11 12 33 8 33 -5z m90 3 c0 -6 -5 -13 -10 -16 -15 -9 -43
3 -35 15 8 13 45 13 45 1z m-1088 -31 c22 0 24 -16 2 -24 -8 -3 -12 -10 -9
-16 3 -5 0 -7 -9 -4 -8 3 -12 12 -9 20 3 8 -1 22 -8 32 -11 14 -11 15 1 5 8
-7 22 -13 32 -13z m421 -22 c-2 -5 -14 -8 -26 -8 -18 0 -19 2 -7 11 11 8 12
12 3 16 -7 2 -13 9 -13 14 0 6 11 2 24 -8 13 -10 22 -21 19 -25z m-58 22 c3
-5 1 -10 -4 -10 -6 0 -11 5 -11 10 0 6 2 10 4 10 3 0 8 -4 11 -10z m385 -1 c0
-5 4 -7 10 -4 6 3 7 -1 4 -10 -4 -9 -14 -15 -23 -13 -21 4 -27 38 -7 38 9 0
16 -5 16 -11z m-793 -41 c-3 -8 -6 -5 -6 6 -1 11 2 17 5 13 3 -3 4 -12 1 -19z
m383 12 c0 -5 -7 -7 -15 -4 -8 4 -15 8 -15 10 0 2 7 4 15 4 8 0 15 -4 15 -10z
m117 -5 c0 -8 -4 -15 -8 -15 -11 0 -20 16 -12 24 11 11 20 7 20 -9z m306 -31
c-10 -7 -22 -13 -28 -13 -5 0 -2 4 8 10 9 6 15 14 12 20 -3 5 1 6 10 3 14 -6
14 -8 -2 -20z m274 -6 c-3 -7 -5 -2 -5 12 0 14 2 19 5 13 2 -7 2 -19 0 -25z
m-840 -9 c-26 -15 -11 -29 23 -22 19 3 30 1 30 -6 0 -14 -56 -15 -65 -1 -3 6
-11 10 -16 10 -6 0 -7 -5 -3 -12 5 -7 3 -8 -6 -3 -9 5 -4 14 16 30 16 13 31
21 34 18 3 -2 -3 -9 -13 -14z m293 11 c0 -5 -4 -10 -10 -10 -5 0 -10 5 -10 10
0 6 5 10 10 10 6 0 10 -4 10 -10z m528 -25 c7 -14 6 -23 -2 -31 -9 -9 -12 -3
-13 23 -1 37 -1 38 15 8z m-204 0 c16 -12 17 -18 8 -27 -9 -9 -12 -8 -12 4 0
9 -12 21 -27 26 -22 8 -23 11 -8 11 11 0 29 -6 39 -14z m-328 -4 c-9 -14 -45
-20 -53 -9 -3 6 -1 8 5 4 6 -3 13 -2 17 4 3 5 13 10 21 10 8 0 13 -4 10 -9z
m59 -11 c-3 -4 1 -10 7 -13 7 -2 9 -8 5 -13 -4 -5 -12 -2 -18 6 -8 13 -10 13
-19 0 -5 -8 -7 -23 -4 -32 3 -10 1 -18 -5 -18 -6 0 -11 13 -11 29 0 21 6 32
20 36 11 4 17 11 14 17 -4 7 -2 8 5 4 6 -4 9 -11 6 -16z m315 -63 c0 -53 -18
-104 -21 -62 -1 11 -2 26 -2 33 1 7 -5 11 -12 8 -8 -3 -11 2 -8 15 3 10 10 16
16 12 6 -4 8 0 4 10 -8 21 2 49 14 41 5 -3 9 -29 9 -57z m69 41 c1 6 6 12 12
12 6 0 9 -8 7 -17 -2 -10 -9 -17 -14 -16 -11 2 -11 -37 0 -56 5 -7 3 -18 -3
-24 -9 -9 -11 -8 -5 6 5 13 2 16 -10 11 -13 -5 -16 2 -16 43 0 54 10 75 21 46
4 -10 8 -12 8 -5z m-1049 -15 c-1 -27 -1 -27 -15 -9 -14 19 -12 36 6 36 5 0 9
-12 9 -27z m90 12 c0 -7 8 -18 17 -24 10 -5 15 -12 11 -16 -6 -7 -48 33 -48
47 0 4 5 8 10 8 6 0 10 -7 10 -15z m368 -2 c-2 -10 -10 -18 -18 -18 -8 0 -16
8 -18 18 -2 12 3 17 18 17 15 0 20 -5 18 -17z m80 0 c-2 -10 -10 -18 -18 -18
-8 0 -16 8 -18 18 -2 12 3 17 18 17 15 0 20 -5 18 -17z m-308 -22 c0 -5 -9
-13 -21 -16 -17 -6 -18 -9 -8 -23 11 -14 11 -15 -1 -4 -18 15 -31 16 -27 0 1
-6 -6 -14 -15 -16 -10 -2 -18 1 -18 7 0 6 7 7 17 4 11 -4 14 -3 9 5 -11 19
-26 14 -36 -10 -5 -13 -9 -18 -9 -11 -2 27 13 43 40 43 15 0 34 7 41 15 15 16
28 19 28 6z m40 -11 c0 -5 9 -10 19 -10 11 0 23 5 26 10 8 13 65 13 65 1 0 -6
36 -10 80 -9 53 0 85 -4 96 -13 15 -12 14 -14 -3 -20 -26 -11 -52 -11 -35 -1
7 5 -12 8 -43 8 -42 -1 -55 -5 -55 -16 0 -12 -2 -12 -8 -2 -5 7 -16 10 -24 7
-9 -4 -19 -1 -24 6 -5 9 -2 10 9 6 11 -4 14 -2 10 9 -7 18 -77 20 -70 2 2 -7
9 -13 15 -13 6 0 16 -5 23 -12 8 -8 5 -11 -14 -10 -14 1 -25 6 -24 12 1 5 -8
11 -20 13 -13 2 -23 8 -23 13 0 5 -7 9 -15 9 -8 0 -15 5 -15 10 0 6 7 10 15
10 8 0 15 -4 15 -10z m330 0 c0 -5 -7 -10 -15 -10 -8 0 -15 5 -15 10 0 6 7 10
15 10 8 0 15 -4 15 -10z m80 0 c0 -5 -4 -10 -10 -10 -5 0 -10 5 -10 10 0 6 5
10 10 10 6 0 10 -4 10 -10z m79 -21 c-12 -7 -11 -9 0 -9 11 0 9 -4 -5 -15 -18
-14 -17 -15 11 -10 l30 6 -32 -15 c-18 -8 -33 -22 -33 -29 0 -11 -10 -14 -35
-11 -19 1 -35 -1 -35 -7 0 -5 16 -9 35 -9 24 0 35 -5 35 -15 0 -11 -11 -15
-36 -15 -29 0 -34 -3 -25 -13 6 -8 7 -17 3 -22 -4 -4 4 -4 18 0 14 4 28 13 32
19 4 6 8 -1 8 -16 0 -26 -3 -28 -45 -28 -44 0 -45 1 -46 33 -1 17 0 44 1 60 1
15 -3 27 -9 27 -5 0 -8 -9 -6 -20 2 -11 0 -22 -6 -25 -5 -4 -9 -11 -9 -16 0
-6 5 -7 10 -4 6 3 10 1 10 -5 0 -6 -11 -8 -27 -4 -22 4 -25 3 -13 -5 13 -9 11
-11 -6 -11 -15 0 -24 -8 -28 -26 -4 -15 -5 -29 -1 -32 3 -3 5 2 5 12 0 13 4
15 19 6 11 -5 29 -10 40 -10 14 0 21 -6 21 -20 0 -13 -7 -20 -20 -20 -11 0
-20 5 -20 11 0 7 -10 9 -25 7 -20 -4 -26 0 -35 25 -5 16 -10 59 -10 94 l0 64
53 -2 c28 -1 77 -1 107 1 43 2 49 4 26 9 -16 3 -31 12 -32 19 -2 8 0 8 3 1 4
-8 8 -7 14 2 6 10 9 11 9 2 0 -7 4 -13 9 -13 6 0 8 9 6 19 -3 14 1 18 11 14 8
-3 14 0 14 7 0 6 5 8 11 4 8 -4 7 -9 -2 -15z m-652 -21 c-3 -8 -6 -5 -6 6 -1
11 2 17 5 13 3 -3 4 -12 1 -19z m173 2 c13 -8 13 -10 -2 -10 -9 0 -20 5 -23
10 -8 13 5 13 25 0z m310 -5 c-7 -8 -20 -15 -28 -15 -13 0 -12 3 4 15 25 19
40 19 24 0z m31 2 c-6 -8 -8 -17 -4 -20 3 -4 1 -7 -5 -7 -14 0 -14 2 -6 24 3
9 11 16 16 16 7 0 6 -5 -1 -13z m-376 -7 c3 -5 1 -10 -4 -10 -6 0 -11 5 -11
10 0 6 2 10 4 10 3 0 8 -4 11 -10z m240 0 c3 -5 1 -10 -4 -10 -6 0 -11 5 -11
10 0 6 2 10 4 10 3 0 8 -4 11 -10z m-388 -16 c-3 -3 -12 -4 -19 -1 -8 3 -5 6
6 6 11 1 17 -2 13 -5z m123 -3 c0 -6 -4 -13 -10 -16 -5 -3 -10 1 -10 9 0 9 5
16 10 16 6 0 10 -4 10 -9z m300 -7 c0 -6 -3 -14 -7 -18 -11 -11 -14 -46 -3
-46 6 0 10 -7 10 -16 0 -8 -4 -12 -10 -9 -5 3 -10 2 -10 -4 0 -5 5 -13 11 -16
5 -4 9 -17 7 -28 -1 -12 1 -27 5 -33 8 -13 -19 -27 -34 -18 -14 8 -11 26 8 39
15 11 14 13 -11 13 -30 -1 -48 12 -28 19 7 3 12 22 12 46 0 36 -3 42 -22 44
-13 1 -34 3 -48 5 -16 2 -24 -2 -22 -9 1 -7 -2 -13 -8 -13 -10 0 -7 -56 3 -66
3 -3 8 4 12 15 3 12 11 19 16 16 5 -4 9 -2 9 4 0 6 8 7 17 4 12 -5 15 -2 10
10 -4 11 -2 14 9 10 23 -9 11 -26 -24 -35 -18 -5 -32 -13 -32 -18 0 -13 13
-13 27 1 17 17 32 2 26 -24 -6 -23 -40 -57 -58 -57 -5 0 -3 5 5 10 19 12 4 13
-38 1 -20 -6 -32 -6 -32 0 0 8 24 12 71 13 8 0 21 6 28 14 11 11 11 13 0 11
-60 -8 -81 9 -89 70 -3 27 -3 48 1 46 4 -3 12 2 19 10 17 21 76 19 90 -2 10
-16 11 -16 7 2 -3 18 1 20 35 20 21 0 38 -4 38 -11z m-116 -48 c-6 -15 -24
-23 -24 -11 0 8 24 34 28 30 1 -1 0 -10 -4 -19z m-317 -9 c1 -11 1 -18 0 -16
-2 2 -8 11 -15 20 -9 12 -9 16 1 16 7 0 14 -9 14 -20z m861 16 c-10 -2 -18 -9
-18 -14 0 -14 26 -11 40 6 7 8 17 15 22 15 16 0 -6 -22 -41 -43 -26 -15 -30
-16 -25 -2 4 10 0 15 -10 15 -9 0 -16 4 -16 9 0 10 24 19 50 19 10 0 9 -2 -2
-5z m-63 -73 c3 -5 4 -10 1 -10 -2 0 -12 -3 -20 -6 -12 -5 -15 -2 -10 10 7 18
20 21 29 6z m-94 -61 c9 -6 5 -7 -13 -3 -18 4 -28 2 -28 -6 0 -6 -4 -8 -10 -5
-15 9 -12 25 5 25 8 0 15 6 15 13 0 9 3 8 9 -2 5 -7 15 -17 22 -22z m-337 6
c-4 -8 -13 -15 -22 -15 -13 0 -12 3 4 15 24 18 25 18 18 0z m-144 -21 c0 -8
-10 -14 -22 -13 -13 0 -18 3 -11 5 7 3 9 12 6 20 -4 10 0 12 11 8 9 -3 16 -12
16 -20z m415 5 c11 -16 2 -17 -25 -2 -24 12 -24 13 -3 13 12 0 25 -5 28 -11z
m-160 -19 c-3 -5 -25 -9 -48 -8 l-42 1 45 7 c25 4 46 8 48 8 2 1 0 -2 -3 -8z
m-202 -7 c-7 -2 -21 -2 -30 0 -10 3 -4 5 12 5 17 0 24 -2 18 -5z m77 -3 c12
-8 9 -10 -12 -10 -16 0 -28 5 -28 10 0 13 20 13 40 0z m208 3 c-10 -2 -26 -2
-35 0 -10 3 -2 5 17 5 19 0 27 -2 18 -5z"/>
<path d="M835 1356 c-15 -12 -16 -15 -5 -16 13 0 13 -1 0 -10 -9 -6 -17 -5
-23 3 -6 8 -7 8 -4 -3 2 -8 -3 -21 -12 -28 -10 -9 -11 -11 -2 -6 11 5 13 3 8
-9 -3 -10 -2 -17 3 -17 6 0 10 6 10 13 0 22 35 47 72 53 27 5 40 1 64 -18 23
-20 37 -24 67 -20 29 3 47 -1 70 -18 l32 -23 -26 28 c-27 28 -57 35 -96 21
-16 -5 -23 -3 -23 6 0 41 -98 72 -135 44z m40 -6 c-28 -12 -37 -12 -30 0 3 6
16 10 28 9 21 0 21 -1 2 -9z"/>
<path d="M676 1305 c5 -13 9 -13 22 -3 9 7 6 -2 -7 -19 -12 -18 -25 -33 -28
-33 -3 0 0 7 7 15 20 24 -4 45 -26 23 -28 -28 -28 -89 -1 -123 21 -25 32 -30
73 -30 54 -1 54 -1 38 -102 -4 -29 -3 -43 5 -43 6 0 11 -10 10 -22 0 -22 -1
-22 -9 -3 -8 20 -9 19 -9 -1 -1 -12 6 -27 14 -34 14 -12 15 -1 13 101 -3 105
-5 114 -23 117 -42 6 -65 25 -71 59 -8 43 15 79 57 88 41 9 20 25 -33 25 -29
0 -36 -3 -32 -15z m-26 -35 c-6 -11 -13 -20 -16 -20 -2 0 0 9 6 20 6 11 13 20
16 20 2 0 0 -9 -6 -20z m7 -72 c-3 12 -1 22 4 22 11 0 12 -30 1 -48 -6 -9 -12
-5 -20 13 -17 36 -14 45 4 15 14 -24 15 -24 11 -2z m44 -42 c5 3 9 0 9 -6 0
-7 -7 -9 -16 -6 -9 3 -18 6 -20 6 -3 0 -2 5 2 12 6 9 9 9 12 0 2 -7 8 -10 13
-6z m66 -148 c-3 -7 -5 -2 -5 12 0 14 2 19 5 13 2 -7 2 -19 0 -25z"/>
<path d="M791 1250 c0 -8 4 -22 9 -30 12 -18 12 -2 0 25 -6 13 -9 15 -9 5z"/>
<path d="M593 1117 c9 -14 24 -21 38 -20 15 1 17 0 7 -3 -21 -6 -23 -26 -7
-56 6 -11 7 -18 1 -14 -5 3 -12 -7 -15 -22 -6 -32 11 -54 45 -57 37 -4 38 -4
38 -19 0 -8 24 -29 53 -47 28 -19 64 -41 79 -51 27 -17 27 -17 125 48 117 78
131 93 106 111 -9 7 -21 13 -27 13 -5 0 -2 -6 8 -13 16 -12 16 -14 -1 -33 -34
-37 -175 -126 -194 -121 -9 3 -45 22 -79 43 l-61 39 6 86 6 87 -33 6 c-19 3
-45 14 -58 23 -38 27 -55 26 -37 0z m80 -51 c-3 -13 0 -27 6 -30 6 -4 11 -19
11 -34 -1 -25 -1 -26 -12 -7 -6 11 -15 23 -20 26 -10 6 1 69 12 69 4 0 5 -11
3 -24z m24 -18 c-3 -7 -5 -2 -5 12 0 14 2 19 5 13 2 -7 2 -19 0 -25z m-52 -58
c-3 -5 -11 -10 -16 -10 -6 0 -7 5 -4 10 3 6 11 10 16 10 6 0 7 -4 4 -10z"/>
<path d="M300 1110 c0 -12 28 -25 36 -17 3 3 -4 10 -15 17 -15 7 -21 7 -21 0z"/>
<path d="M328 1083 c-14 -4 -14 -8 6 -44 28 -49 93 -98 138 -104 45 -6 86 12
103 46 22 41 19 42 -17 5 l-31 -33 -28 31 c-16 17 -29 28 -29 24 0 -4 7 -14
16 -22 8 -9 11 -16 5 -16 -5 0 -13 5 -16 11 -4 6 -22 8 -44 4 -31 -5 -40 -2
-60 21 -18 21 -20 28 -10 35 12 8 11 11 -1 20 -13 9 -12 10 3 5 21 -7 23 10 1
18 -9 3 -16 5 -17 5 -1 -1 -9 -3 -19 -6z"/>
<path d="M1158 1084 c-10 -9 3 -35 14 -28 6 4 8 -2 3 -15 -5 -17 1 -30 30 -57
48 -45 63 -34 25 19 -55 76 -66 88 -72 81z m67 -94 l20 -25 -22 19 c-13 11
-23 24 -23 29 0 6 1 8 3 6 1 -2 11 -15 22 -29z"/>
<path d="M395 1050 c3 -5 -1 -10 -9 -10 -19 0 -20 -5 -6 -31 6 -10 18 -19 28
-19 15 0 15 2 2 11 -12 8 -9 9 12 5 38 -9 42 7 8 32 -31 24 -45 28 -35 12z
m49 -39 c-2 -3 -12 3 -22 13 -16 17 -16 18 5 5 12 -7 20 -15 17 -18z"/>
<path d="M710 669 c-52 -39 -97 -75 -98 -80 -2 -5 -8 -7 -12 -4 -5 3 -14 -4
-20 -16 -16 -29 -10 -25 128 83 135 105 136 115 2 17z"/>
<path d="M990 658 c0 -6 128 -108 135 -108 3 0 20 -13 38 -30 18 -16 38 -30
45 -30 15 0 -24 35 -83 73 -22 14 -61 43 -87 63 -27 20 -48 34 -48 32z"/>
<path d="M1164 309 c-3 -6 -2 -15 4 -21 14 -14 44 -6 49 12 3 9 1 11 -4 5 -7
-10 -19 -11 -40 -6 -5 2 1 6 12 11 16 7 17 9 3 9 -9 1 -20 -4 -24 -10z"/>
<path d="M1363 1333 c-27 -5 -30 -18 -6 -27 10 -4 14 -4 10 0 -4 4 1 13 11 20
9 7 15 13 12 12 -3 0 -15 -3 -27 -5z"/>
<path d="M985 361 c3 -6 -3 -15 -12 -21 -17 -10 -16 -11 2 -8 21 3 35 38 15
38 -6 0 -9 -4 -5 -9z"/>
<path d="M895 220 c3 -5 8 -10 11 -10 2 0 4 5 4 10 0 6 -5 10 -11 10 -5 0 -7
-4 -4 -10z"/>
<path d="M1138 1613 c7 -3 16 -2 19 1 4 3 -2 6 -13 5 -11 0 -14 -3 -6 -6z"/>
<path d="M1200 1590 c21 -18 50 -27 50 -16 0 5 -59 36 -68 36 -3 0 5 -9 18
-20z"/>
<path d="M350 400 c0 -5 5 -10 10 -10 6 0 10 5 10 10 0 6 -4 10 -10 10 -5 0
-10 -4 -10 -10z"/>
<path d="M530 349 c0 -25 33 -22 38 4 2 12 -3 17 -17 17 -15 0 -21 -6 -21 -21z"/>
<path d="M530 291 c0 -11 5 -21 11 -21 5 0 7 5 4 10 -3 6 -1 10 5 10 7 0 9 -7
6 -16 -3 -9 -6 -17 -6 -20 0 -2 -8 -1 -17 3 -14 5 -15 3 -7 -6 9 -10 16 -10
33 1 25 15 23 26 -7 46 -20 13 -22 13 -22 -7z"/>
</g>
</svg>
